<?xml version="1.0" encoding="utf-8"?>
<!-- Generator: Adobe Illustrator 28.2.0, SVG Export Plug-In . SVG Version: 6.00 Build 0)  -->
<svg version="1.1" id="LOGO" xmlns="http://www.w3.org/2000/svg" xmlns:xlink="http://www.w3.org/1999/xlink" x="0px" y="0px"
	 viewBox="0 0 307.7 164.2" style="enable-background:new 0 0 307.7 164.2;" xml:space="preserve">
<style type="text/css">
	.st0{fill:#79378C;}
	.st1{fill:none;}
	.st2{fill:#5C5C5B;}
	.st3{fill:#FFFFFF;}
</style>
<g>
	<circle class="st0" cx="82.1" cy="82.1" r="27.4"/>
	<rect y="0" class="st1" width="307.7" height="164.2"/>
	<g>
		<g>
			<polygon class="st2" points="209.1,78.4 221.2,78.4 221.2,82.9 204,82.9 204,58.6 221.2,58.6 221.2,63 209.1,63 			"/>
			<path class="st2" d="M213,73.1h3c1.3,0,2.3-1,2.3-2.3s-1-2.3-2.3-2.3h-3c-1.3,0-2.3,1-2.3,2.3C210.7,72,211.7,73.1,213,73.1"/>
		</g>
		<polygon class="st2" points="159,82.9 159,63.5 151.1,63.5 151.1,58.6 172.1,58.6 172.1,63.5 164.1,63.5 164.1,82.9 		"/>
		<polygon class="st2" points="247.8,82.9 247.8,66 240.5,76.1 233.1,66 233.1,82.9 228,82.9 228,58.6 233.5,58.6 240.5,68.3 
			247.5,58.6 252.9,58.6 252.9,82.9 		"/>
		<path class="st2" d="M189.7,82.9l-4.9-8.4h-3.7v8.4h-5V58.6h9.8c3,0,5.3,0.7,7,2c1.7,1.4,2.5,3.3,2.5,5.9c0,3.6-1.8,6-5.3,7.2
			l5.5,9.2C195.6,82.9,189.7,82.9,189.7,82.9z M185.9,70.1c1.5,0,2.6-0.3,3.5-0.7c0.8-0.5,1.2-1.4,1.2-2.7c0-1.4-0.4-2.3-1.2-2.8
			c-0.8-0.5-2-0.7-3.5-0.7h-4.7v7h4.7V70.1z"/>
		<polygon class="st2" points="146.9,58.6 140.7,58.6 135.5,66.2 130.3,58.6 124.1,58.6 132.4,70.7 124.1,82.9 130.3,82.9 
			135.5,75.2 140.7,82.9 146.9,82.9 138.6,70.7 		"/>
	</g>
	<g>
		<path class="st0" d="M124.5,107.2l2.4-2.6c0.4,0.5,1,0.9,1.7,1.4c0.7,0.4,1.6,0.7,2.5,0.7c0.4,0,0.8-0.1,1.1-0.2
			c0.4-0.1,0.7-0.3,0.9-0.6c0.2-0.3,0.4-0.6,0.4-1c0-0.6-0.3-1.1-0.9-1.4c-0.6-0.3-1.5-0.7-2.8-1s-2.3-0.9-3.1-1.7
			c-0.8-0.8-1.2-1.8-1.2-3.1c0-0.9,0.2-1.8,0.7-2.6c0.4-0.8,1.1-1.4,2-1.9c0.9-0.5,2-0.7,3.4-0.7c1.1,0,2.1,0.1,2.8,0.4
			c0.8,0.3,1.4,0.6,1.9,1c0.5,0.3,0.8,0.6,1,0.8l-2.2,2.4c-0.4-0.3-0.8-0.6-1.4-1c-0.6-0.4-1.3-0.5-2.1-0.5c-0.5,0-1,0.2-1.5,0.5
			s-0.7,0.7-0.7,1.1c0,0.6,0.3,1,0.9,1.4c0.6,0.3,1.4,0.6,2.5,0.9c0.8,0.2,1.6,0.5,2.4,0.9c0.8,0.4,1.4,1,1.9,1.7s0.7,1.6,0.7,2.8
			c0,1-0.3,1.9-0.8,2.7c-0.6,0.8-1.3,1.4-2.3,1.8s-2,0.7-3.2,0.7c-1.1,0-2.1-0.1-2.9-0.4c-0.8-0.3-1.6-0.6-2.2-1
			C125.5,108.1,125,107.7,124.5,107.2z"/>
		<path class="st0" d="M140.8,109.5l6.2-16.6h4.2l6.1,16.6h-4.1l-1.3-3.8H146l-1.3,3.8H140.8z M146.9,102.8h4.1l-2-6.3L146.9,102.8z
			"/>
		<path class="st0" d="M160.9,109.5V92.9h3.6l7.2,10.8V92.9h3.7v16.6H172l-7.4-11v11H160.9z"/>
		<path class="st0" d="M184.8,109.5V96.2h-5.4v-3.3h14.5v3.3h-5.4v13.3H184.8z"/>
		<path class="st0" d="M197.9,109.5V92.9h11.4v3.3h-7.6v3.2h5.9v3.2h-5.9v3.6h8.1v3.3H197.9z M202.1,91.7l1.8-3.9h4.1l-3,3.9H202.1z
			"/>
	</g>
	<g>
		<path class="st3" d="M69.7,72.1c1.4,0,2.5-1.1,2.5-2.5s-1.1-2.5-2.5-2.5s-2.5,1.1-2.5,2.5S68.3,72.1,69.7,72.1z"/>
		<path class="st3" d="M96.3,92.7L89,85.4c-0.5-0.5-1.1-0.8-1.8-0.8c-1.4,0-2.5,1.1-2.5,2.5c0,0.7,0.3,1.3,0.8,1.8l0,0l7.5,7.5l0,0
			c0.5,0.5,1.1,0.7,1.8,0.7c1.4,0,2.5-1.1,2.5-2.5C97.1,93.8,96.8,93.2,96.3,92.7z"/>
		<path class="st3" d="M84,83.8l4.8-4.8l0.1-0.1l7.3-7.3c0.5-0.5,0.8-1.1,0.8-1.8c0-1.4-1.1-2.5-2.5-2.5c-0.7,0-1.3,0.3-1.8,0.7l0,0
			L82.1,78.6l-5.7-5.7l0,0c-0.5-0.4-1.1-0.7-1.8-0.7c-1.4,0-2.5,1.1-2.5,2.5c0,0.7,0.3,1.4,0.8,1.8l5.7,5.7L68,92.7
			c-0.5,0.5-0.8,1.1-0.8,1.8c0,1.4,1.1,2.5,2.5,2.5c0.7,0,1.3-0.3,1.8-0.7l0,0L84,83.8L84,83.8C83.9,83.8,83.9,83.8,84,83.8z"/>
	</g>
</g>
</svg>
