<?xml version="1.0" encoding="utf-8"?>
<!-- Generator: Adobe Illustrator 28.3.0, SVG Export Plug-In . SVG Version: 6.00 Build 0)  -->
<svg version="1.1" id="LOGO" xmlns="http://www.w3.org/2000/svg" xmlns:xlink="http://www.w3.org/1999/xlink" x="0px" y="0px"
	 viewBox="0 0 312.53 164.14" style="enable-background:new 0 0 312.53 164.14;" xml:space="preserve">
<style type="text/css">
	.st0{fill:#79378A;}
	.st1{fill:#5D5D5C;}
	.st2{fill:#FFFFFF;}
	.st3{fill:#7A378C;}
	.st4{fill:none;}
</style>
<g>
	<g>
		<g>
			<circle class="st0" cx="65.45" cy="67.14" r="27.38"/>
			<g>
				<g>
					<polygon class="st1" points="192.45,63.44 204.51,63.44 204.51,67.9 187.34,67.9 187.34,43.61 204.51,43.61 204.51,48.06 
						192.45,48.06 					"/>
					<path class="st1" d="M196.34,58.09h2.97c1.29,0,2.34-1.05,2.34-2.34c0-1.29-1.05-2.33-2.34-2.33h-2.97
						c-1.29,0-2.33,1.04-2.33,2.33C194.01,57.04,195.06,58.09,196.34,58.09"/>
				</g>
				<polygon class="st1" points="142.3,67.9 142.3,48.5 134.38,48.5 134.38,43.61 155.37,43.61 155.37,48.5 147.41,48.5 
					147.41,67.9 				"/>
				<polygon class="st1" points="231.16,67.9 231.16,51.05 223.8,61.08 216.44,51.05 216.44,67.9 211.33,67.9 211.33,43.61 
					216.77,43.61 223.8,53.28 230.82,43.61 236.26,43.61 236.26,67.9 				"/>
				<path class="st1" d="M173.06,67.9l-4.85-8.4h-3.68v8.4h-4.98v-24.3h9.84c2.97,0,5.33,0.69,6.99,2.04
					c1.68,1.37,2.53,3.34,2.53,5.86c0,3.62-1.8,6.03-5.34,7.17l5.54,9.22H173.06z M169.26,55.1c1.47,0,2.64-0.25,3.46-0.74
					c0.8-0.48,1.18-1.37,1.18-2.74c0-1.37-0.4-2.29-1.18-2.75c-0.83-0.48-1.99-0.73-3.47-0.73h-4.74v6.96H169.26z"/>
				<polygon class="st1" points="130.21,43.61 124.03,43.61 118.8,51.24 113.58,43.61 107.4,43.61 115.71,55.75 107.4,67.9 
					113.58,67.9 118.8,60.26 124.03,67.9 130.21,67.9 121.89,55.75 				"/>
			</g>
			<g>
				<path class="st0" d="M107.84,92.22l2.41-2.61c0.43,0.46,1.01,0.92,1.73,1.37c0.72,0.45,1.56,0.67,2.53,0.67
					c0.38,0,0.76-0.07,1.12-0.21c0.37-0.14,0.67-0.35,0.91-0.62c0.24-0.27,0.36-0.6,0.36-0.98c0-0.61-0.3-1.09-0.9-1.44
					c-0.6-0.35-1.54-0.68-2.84-1c-1.26-0.31-2.31-0.87-3.14-1.67c-0.83-0.8-1.24-1.83-1.24-3.09c0-0.93,0.22-1.78,0.67-2.55
					c0.45-0.77,1.12-1.39,2.02-1.87c0.9-0.47,2.02-0.71,3.39-0.71c1.13,0,2.08,0.15,2.85,0.44c0.77,0.29,1.39,0.61,1.85,0.96
					c0.46,0.35,0.79,0.63,0.97,0.85l-2.17,2.39c-0.37-0.28-0.85-0.6-1.44-0.96c-0.6-0.36-1.3-0.53-2.12-0.53
					c-0.53,0-1.02,0.15-1.48,0.46c-0.46,0.31-0.68,0.68-0.68,1.11c0,0.56,0.3,1.02,0.9,1.37c0.6,0.35,1.42,0.64,2.46,0.87
					c0.81,0.2,1.6,0.5,2.35,0.9c0.76,0.4,1.37,0.95,1.85,1.67c0.48,0.71,0.72,1.64,0.72,2.79c0,1-0.28,1.88-0.85,2.66
					c-0.57,0.78-1.33,1.39-2.29,1.84c-0.96,0.45-2.04,0.67-3.24,0.67c-1.1,0-2.07-0.13-2.91-0.4c-0.85-0.27-1.59-0.61-2.21-1.03
					C108.81,93.12,108.27,92.68,107.84,92.22z"/>
				<path class="st0" d="M124.15,94.56l6.2-16.6h4.16l6.07,16.6h-4.11l-1.27-3.81h-5.85l-1.27,3.81H124.15z M130.22,87.83h4.08
					l-2.02-6.27L130.22,87.83z"/>
				<path class="st0" d="M144.23,94.56v-16.6h3.58l7.19,10.78V77.95h3.71v16.6h-3.41l-7.37-10.98v10.98H144.23z"/>
				<path class="st0" d="M168.1,94.56V81.26h-5.38v-3.31h14.51v3.31h-5.35v13.29H168.1z"/>
				<path class="st0" d="M181.24,94.56v-16.6h11.35v3.29H185v3.23h5.9v3.19H185v3.58h8.14v3.31H181.24z M185.4,76.71l1.82-3.88h4.06
					l-2.96,3.88H185.4z"/>
			</g>
			<g>
				<path class="st2" d="M52.98,57.14c1.38,0,2.49-1.12,2.49-2.49c0-1.38-1.12-2.49-2.49-2.49c-1.38,0-2.49,1.12-2.49,2.49
					C50.49,56.03,51.6,57.14,52.98,57.14z"/>
				<path class="st2" d="M79.6,77.76l-7.35-7.35c-0.46-0.49-1.1-0.81-1.83-0.81c-1.38,0-2.49,1.12-2.49,2.49
					c0,0.71,0.3,1.34,0.77,1.8l-0.01,0.01l7.45,7.45l0.01-0.01c0.45,0.45,1.07,0.73,1.76,0.73c1.38,0,2.49-1.12,2.49-2.49
					C80.41,78.86,80.1,78.21,79.6,77.76z"/>
				<path class="st2" d="M67.27,68.81l4.85-4.85c0.05-0.05,0.1-0.09,0.14-0.14l7.35-7.35c0.49-0.46,0.81-1.1,0.81-1.83
					c0-1.38-1.12-2.49-2.49-2.49c-0.69,0-1.31,0.28-1.76,0.73l-0.01-0.01l-10.7,10.7l-5.71-5.71l-0.01,0.01
					c-0.45-0.45-1.07-0.73-1.76-0.73c-1.38,0-2.49,1.12-2.49,2.49c0,0.72,0.31,1.37,0.81,1.83l5.65,5.65L51.29,77.76
					c-0.49,0.46-0.81,1.1-0.81,1.83c0,1.38,1.12,2.49,2.49,2.49c0.69,0,1.31-0.28,1.76-0.73l0.01,0.01l12.47-12.47l-0.01-0.01
					C67.23,68.86,67.25,68.83,67.27,68.81z"/>
			</g>
		</g>
		<g>
			<g>
				<path class="st1" d="M119.97,117.17v-0.76h2.14v2.44c-0.23,0.21-0.53,0.4-0.92,0.56c-0.38,0.17-0.88,0.25-1.49,0.25
					c-0.64,0-1.19-0.14-1.65-0.42c-0.46-0.28-0.82-0.66-1.08-1.14s-0.38-1.03-0.38-1.63c0-0.45,0.07-0.86,0.22-1.25
					c0.15-0.39,0.35-0.73,0.63-1.03c0.27-0.3,0.6-0.53,0.97-0.69c0.38-0.16,0.79-0.25,1.25-0.25c0.43,0,0.8,0.06,1.11,0.19
					c0.31,0.13,0.57,0.29,0.77,0.47c0.21,0.19,0.37,0.37,0.49,0.54l-0.62,0.53c-0.1-0.14-0.22-0.28-0.38-0.43
					c-0.15-0.15-0.34-0.27-0.56-0.37c-0.22-0.1-0.49-0.15-0.8-0.15c-0.45,0-0.83,0.11-1.16,0.33c-0.33,0.22-0.58,0.51-0.75,0.88
					c-0.17,0.37-0.26,0.77-0.26,1.22c0,0.47,0.1,0.89,0.29,1.25c0.19,0.36,0.45,0.64,0.79,0.85c0.33,0.2,0.71,0.31,1.14,0.31
					c0.35,0,0.66-0.04,0.91-0.12c0.25-0.08,0.46-0.19,0.63-0.33v-1.25H119.97z"/>
				<path class="st1" d="M125.29,119.52v-6.11h1.95c0.52,0,0.93,0.09,1.24,0.27c0.31,0.18,0.54,0.4,0.67,0.68
					c0.14,0.27,0.21,0.56,0.21,0.85c0,0.39-0.09,0.74-0.27,1.04c-0.18,0.3-0.47,0.52-0.85,0.67l1.43,2.61h-0.99l-1.31-2.5h-1.23v2.5
					H125.29z M126.14,116.27h1.17c0.38,0,0.66-0.09,0.86-0.28c0.2-0.19,0.29-0.44,0.29-0.76c0-0.34-0.1-0.6-0.31-0.78
					c-0.21-0.19-0.49-0.28-0.86-0.28h-1.15V116.27z"/>
				<path class="st1" d="M135.16,119.67c-0.44,0-0.85-0.08-1.23-0.25c-0.38-0.16-0.71-0.4-0.99-0.69c-0.28-0.3-0.5-0.64-0.66-1.03
					c-0.16-0.39-0.24-0.8-0.24-1.25s0.08-0.86,0.23-1.25c0.16-0.39,0.38-0.73,0.66-1.02c0.28-0.29,0.62-0.52,0.99-0.69
					c0.38-0.16,0.79-0.25,1.23-0.25s0.85,0.08,1.23,0.25c0.38,0.16,0.71,0.39,0.99,0.69c0.28,0.29,0.51,0.63,0.66,1.02
					c0.16,0.39,0.24,0.8,0.24,1.25s-0.08,0.86-0.24,1.25c-0.16,0.39-0.38,0.73-0.66,1.03c-0.28,0.3-0.62,0.53-0.99,0.69
					C136.01,119.59,135.6,119.67,135.16,119.67z M135.16,118.85c0.45,0,0.83-0.11,1.16-0.33c0.33-0.22,0.59-0.51,0.77-0.88
					c0.18-0.36,0.28-0.76,0.28-1.19c0-0.44-0.09-0.84-0.27-1.2c-0.18-0.36-0.43-0.65-0.76-0.87c-0.33-0.22-0.72-0.32-1.17-0.32
					c-0.45,0-0.83,0.11-1.16,0.32c-0.33,0.22-0.59,0.51-0.76,0.87c-0.18,0.36-0.27,0.76-0.27,1.2c0,0.43,0.09,0.83,0.27,1.19
					c0.18,0.36,0.44,0.66,0.76,0.88C134.33,118.74,134.71,118.85,135.16,118.85z"/>
				<path class="st1" d="M141.21,117.19v-3.78h0.88v3.57c0,0.37,0.05,0.69,0.14,0.97c0.09,0.28,0.25,0.5,0.48,0.65
					c0.23,0.16,0.54,0.23,0.94,0.23c0.4,0,0.72-0.08,0.94-0.23c0.22-0.16,0.38-0.37,0.47-0.65c0.09-0.28,0.14-0.6,0.14-0.97v-3.57
					h0.88v3.78c0,0.46-0.09,0.88-0.26,1.26c-0.17,0.38-0.44,0.67-0.8,0.89c-0.36,0.22-0.81,0.33-1.37,0.33
					c-0.56,0-1.01-0.11-1.37-0.33c-0.36-0.22-0.63-0.52-0.8-0.89C141.3,118.07,141.21,117.65,141.21,117.19z"/>
				<path class="st1" d="M149.25,119.52v-6.11h1.93c0.42,0,0.76,0.06,1.03,0.17c0.27,0.11,0.49,0.26,0.65,0.44
					c0.16,0.18,0.27,0.38,0.34,0.6c0.07,0.22,0.1,0.43,0.1,0.64c0,0.4-0.09,0.74-0.27,1.02c-0.18,0.28-0.42,0.49-0.73,0.63
					c-0.31,0.14-0.67,0.21-1.07,0.21h-1.11v2.4H149.25z M150.12,116.36h1.1c0.38,0,0.67-0.1,0.88-0.29c0.2-0.2,0.31-0.46,0.31-0.8
					c0-0.34-0.1-0.61-0.31-0.82c-0.21-0.2-0.5-0.3-0.87-0.3h-1.1V116.36z"/>
				<path class="st1" d="M156.27,119.52v-6.11h3.85v0.78h-2.97v1.78h2.23v0.79h-2.23v1.98h3.19v0.79H156.27z"/>
				<path class="st1" d="M166.22,118.65l0.89-0.96c0.16,0.17,0.37,0.34,0.64,0.5c0.27,0.16,0.58,0.25,0.93,0.25
					c0.14,0,0.28-0.03,0.41-0.08c0.13-0.05,0.24-0.13,0.33-0.23c0.09-0.1,0.13-0.22,0.13-0.36c0-0.23-0.11-0.4-0.33-0.53
					c-0.22-0.13-0.57-0.25-1.04-0.37c-0.46-0.12-0.85-0.32-1.15-0.61s-0.46-0.67-0.46-1.14c0-0.34,0.08-0.66,0.25-0.94
					c0.17-0.28,0.41-0.51,0.74-0.69c0.33-0.17,0.74-0.26,1.24-0.26c0.42,0,0.76,0.05,1.05,0.16c0.28,0.11,0.51,0.22,0.68,0.35
					c0.17,0.13,0.29,0.23,0.36,0.31l-0.8,0.88c-0.14-0.1-0.31-0.22-0.53-0.35c-0.22-0.13-0.48-0.2-0.78-0.2
					c-0.2,0-0.38,0.06-0.55,0.17c-0.17,0.11-0.25,0.25-0.25,0.41c0,0.21,0.11,0.38,0.33,0.5c0.22,0.13,0.52,0.23,0.91,0.32
					c0.3,0.07,0.59,0.18,0.86,0.33c0.28,0.15,0.51,0.35,0.68,0.61c0.18,0.26,0.27,0.6,0.27,1.03c0,0.37-0.1,0.69-0.31,0.98
					c-0.21,0.29-0.49,0.51-0.84,0.68c-0.35,0.16-0.75,0.25-1.19,0.25c-0.4,0-0.76-0.05-1.07-0.15c-0.31-0.1-0.58-0.22-0.82-0.38
					C166.58,118.99,166.38,118.82,166.22,118.65z"/>
				<path class="st1" d="M176.84,119.67c-0.45,0-0.87-0.08-1.26-0.24s-0.72-0.39-1.01-0.68c-0.29-0.29-0.51-0.64-0.67-1.03
					c-0.16-0.39-0.24-0.81-0.24-1.26c0-0.46,0.08-0.88,0.24-1.27c0.16-0.39,0.38-0.73,0.67-1.02c0.29-0.29,0.62-0.52,1.01-0.68
					c0.39-0.16,0.81-0.24,1.26-0.24c0.45,0,0.87,0.08,1.25,0.24c0.38,0.16,0.72,0.39,1.01,0.68c0.29,0.29,0.51,0.63,0.67,1.02
					c0.16,0.39,0.24,0.81,0.24,1.27c0,0.45-0.08,0.87-0.24,1.26c-0.16,0.39-0.38,0.73-0.67,1.03c-0.29,0.29-0.63,0.52-1.01,0.68
					S177.29,119.67,176.84,119.67z M176.84,118.37c0.36,0,0.67-0.09,0.93-0.27c0.26-0.18,0.46-0.41,0.6-0.71
					c0.14-0.29,0.21-0.61,0.21-0.96s-0.07-0.67-0.21-0.96c-0.14-0.29-0.34-0.52-0.6-0.7c-0.26-0.17-0.57-0.26-0.93-0.26
					c-0.36,0-0.67,0.09-0.93,0.26c-0.26,0.17-0.46,0.41-0.6,0.7c-0.14,0.29-0.21,0.61-0.21,0.96s0.07,0.67,0.21,0.96
					c0.14,0.29,0.34,0.53,0.6,0.71C176.17,118.28,176.48,118.37,176.84,118.37z"/>
				<path class="st1" d="M182.8,119.52v-6.11h4.1v1.22h-2.72v1.38h2.07v1.18h-2.07v2.33H182.8z"/>
				<path class="st1" d="M191.14,119.52v-4.89h-1.98v-1.22h5.34v1.22h-1.97v4.89H191.14z"/>
				<path class="st1" d="M198.18,119.52l-1.53-6.11h1.48l0.9,4.42l1.07-4.26h1.26l1.08,4.26l0.89-4.42h1.43l-1.56,6.11h-1.46
					l-1.04-3.99l-1.06,3.99H198.18z"/>
				<path class="st1" d="M206.27,119.52l2.28-6.11h1.53l2.23,6.11h-1.51l-0.47-1.4h-2.15l-0.47,1.4H206.27z M208.5,117.04h1.5
					l-0.74-2.31L208.5,117.04z"/>
				<path class="st1" d="M215.45,119.52v-2.56l-2.14-3.55h1.57l1.33,2.31l1.29-2.31h1.5l-2.14,3.54v2.56H215.45z"/>
				<path class="st1" d="M224.91,119.52l0.28-6.11h1.31l1.59,2.87l1.56-2.87h1.32l0.28,6.11h-1.38l-0.17-3.99l-1.26,2.38h-0.71
					l-1.34-2.35l-0.16,3.97H224.91z"/>
				<path class="st1" d="M234.18,119.52v-6.11h4.18v1.21h-2.79v1.19h2.17v1.17h-2.17v1.32h2.99v1.22H234.18z"/>
				<path class="st1" d="M241.33,119.52v-6.11h2.31c0.63,0,1.19,0.11,1.68,0.32s0.88,0.55,1.16,1.01c0.28,0.45,0.42,1.04,0.42,1.75
					c0,0.67-0.14,1.23-0.43,1.68c-0.28,0.45-0.67,0.78-1.16,1.01c-0.49,0.22-1.05,0.33-1.68,0.33H241.33z M242.71,118.29h0.84
					c0.61,0,1.08-0.16,1.41-0.49c0.33-0.32,0.49-0.76,0.49-1.32c0-0.56-0.15-1.01-0.46-1.35c-0.31-0.34-0.79-0.51-1.45-0.51h-0.84
					V118.29z"/>
				<path class="st1" d="M249.68,119.52v-6.11h1.38v6.11H249.68z"/>
				<path class="st1" d="M258.65,117.53l0.94,0.86c-0.17,0.23-0.39,0.45-0.65,0.64c-0.27,0.2-0.56,0.35-0.89,0.47
					c-0.33,0.12-0.68,0.17-1.06,0.17c-0.62,0-1.16-0.14-1.64-0.41c-0.47-0.28-0.84-0.65-1.11-1.13c-0.27-0.48-0.4-1.03-0.4-1.64
					c0-0.45,0.08-0.88,0.23-1.27c0.15-0.39,0.37-0.74,0.65-1.03c0.28-0.29,0.61-0.52,1-0.69c0.39-0.16,0.82-0.25,1.29-0.25
					c0.56,0,1.06,0.1,1.48,0.31c0.43,0.21,0.78,0.51,1.06,0.9l-0.94,0.91c-0.18-0.26-0.4-0.46-0.65-0.62s-0.55-0.23-0.9-0.23
					c-0.37,0-0.68,0.09-0.95,0.26c-0.27,0.17-0.47,0.41-0.61,0.7c-0.14,0.29-0.22,0.62-0.22,0.97c0,0.36,0.07,0.68,0.22,0.97
					c0.14,0.29,0.35,0.51,0.61,0.68c0.26,0.17,0.57,0.25,0.93,0.25c0.29,0,0.54-0.04,0.73-0.12c0.2-0.08,0.36-0.18,0.5-0.31
					C258.4,117.8,258.53,117.67,258.65,117.53z"/>
				<path class="st1" d="M261.62,119.52l2.28-6.11h1.53l2.23,6.11h-1.51l-0.47-1.4h-2.15l-0.47,1.4H261.62z M263.86,117.04h1.5
					l-0.74-2.31L263.86,117.04z"/>
				<path class="st1" d="M270.16,119.52v-6.11h1.38v4.88h2.92v1.23H270.16z"/>
			</g>
			<path class="st3" d="M109.37,124.38c-0.84,0-1.53-0.68-1.53-1.53v-12.79c0-0.84,0.68-1.53,1.53-1.53s1.53,0.68,1.53,1.53v12.79
				C110.9,123.69,110.21,124.38,109.37,124.38z"/>
		</g>
	</g>
	<rect class="st4" width="312.53" height="164.14"/>
</g>
</svg>
